<svg xmlns="http://www.w3.org/2000/svg" viewBox="-6.0 -16.0 152.0 140.0" width="304" height="280">
  <rect x="-6" y="-16" width="152" height="140" fill="#0a0e14"></rect>
  <path d="M11.6 0 L46.4 0 L58 11.6 L58 46.4 L46.4 58 L11.6 58 L0 46.4 L0 11.6 Z M7.5 14.7 L7.5 43.3 L14.7 50.5 L43.3 50.5 L50.5 43.3 L50.5 14.7 L43.3 7.5 L14.7 7.5 Z M12.5 16.8 L18.8 16.8 L18.8 41.2 L12.5 41.2 Z M12.5 16.8 L40.7 16.8 L45.6 20.2 L45.6 21 L12.5 21 Z M39.3 20.2 L45.6 20.2 L45.6 27.5 L40.7 30.9 L39.3 30.9 Z M18.8 26.8 L40.7 26.8 L40.7 30.9 L18.8 30.9 Z M28.1 30.9 L33.9 30.9 L44.1 41.2 L38.3 41.2 Z" fill="#eaf2ff" fill-rule="nonzero"></path>
</svg>