<svg xmlns="http://www.w3.org/2000/svg" viewBox="-6.0 -16.0 152.0 140.0" width="304" height="280">
  <rect x="-6" y="-16" width="152" height="140" fill="#0a0e14"></rect>
  <path d="M20 0 L80 0 L100 20 L100 80 L80 100 L20 100 L0 80 L0 20 Z M13 25.4 L13 74.6 L25.4 87 L74.6 87 L87 74.6 L87 25.4 L74.6 13 L25.4 13 Z M27.1 29 L72.9 29 L81.3 34.9 L81.3 36.1 L18.7 36.1 L18.7 34.9 Z M18.7 34.9 L29.6 34.9 L29.6 71 L18.7 71 Z M70.4 36.1 L81.3 36.1 L81.3 53.4 L70.4 53.4 Z M44.7 46.2 L81.3 46.2 L81.3 53.4 L44.7 53.4 Z" fill="#eaf2ff" fill-rule="nonzero"></path>
</svg>