<svg xmlns="http://www.w3.org/2000/svg" width="154.55" height="100" viewBox="0 0 154.55 100">
<path d="M 0.97 0.97 l -0.11 0.11 0.00 40.65 0.00 40.64 0.18 0.10 0.19 0.09 10.97 -0.00 10.97 -0.01 0.17 -0.12 0.16 -0.12 0.00 -26.34 0.00 -26.34 0.15 -0.14 0.14 -0.15 6.63 -0.00 6.62 -0.00 0.20 0.11 0.20 0.12 9.67 9.69 9.68 9.70 0.51 0.48 0.50 0.49 1.20 1.22 1.19 1.21 1.36 1.34 1.36 1.34 0.62 0.64 0.62 0.64 12.98 13.02 12.97 13.01 0.10 -0.00 0.10 -0.00 0.09 0.12 0.09 0.11 31.29 -0.00 31.28 -0.00 0.00 -11.32 0.00 -11.32 -24.34 -0.02 -24.34 -0.03 -29.50 -29.55 -29.50 -29.55 -22.16 0.01 -22.17 -0.00 -0.11 0.11 M 55.44 0.96 l -0.06 0.10 10.53 10.54 10.53 10.53 0.07 0.09 0.06 0.09 0.69 0.64 0.70 0.64 37.41 -0.03 37.42 -0.03 0.17 -0.08 0.16 -0.09 0.00 -11.15 0.00 -11.16 -0.11 -0.11 -0.11 -0.11 -48.69 -0.00 -48.70 -0.00 -0.07 0.10 M 1.19 88.15 l -0.06 0.09 0.00 5.51 -0.01 5.52 0.09 0.09 0.09 0.09 1.32 -0.03 1.32 -0.03 0.03 -4.65 0.02 -4.66 0.22 -0.06 0.21 -0.06 4.97 -0.00 4.97 -0.00 0.21 0.06 0.22 0.06 0.02 4.66 0.03 4.65 1.37 -0.00 1.37 -0.00 0.03 -4.85 0.02 -4.84 -0.58 -0.39 -0.58 -0.39 -0.05 -0.00 -0.05 -0.00 -0.55 -0.43 -0.55 -0.43 -7.02 -0.00 -7.01 -0.00 -0.05 0.09 M 22.12 88.40 l -0.46 0.32 -0.06 0.09 -0.06 0.08 -0.14 0.08 -0.14 0.07 -0.19 0.11 -0.20 0.11 -0.30 0.28 -0.30 0.28 0.00 4.69 -0.01 4.68 0.17 0.13 0.17 0.12 1.25 -0.03 1.24 -0.03 0.06 -0.06 0.06 -0.05 0.00 -5.52 0.01 -5.51 -0.06 -0.09 -0.06 -0.09 -0.26 0.01 -0.26 0.01 -0.46 0.31 M 27.94 88.21 l -0.11 0.14 -0.09 -0.00 -0.09 -0.00 -0.36 0.28 -0.36 0.28 -0.07 -0.00 -0.07 -0.00 -0.40 0.30 -0.39 0.30 -0.16 0.17 -0.17 0.16 0.00 3.83 0.00 3.82 0.27 0.26 0.27 0.26 0.11 -0.00 0.11 -0.00 0.00 0.09 0.00 0.09 0.22 0.09 0.21 0.09 0.19 0.11 0.19 0.12 0.09 0.10 0.09 0.11 0.54 0.29 0.54 0.29 5.69 -0.00 5.69 -0.00 0.30 -0.15 0.30 -0.16 0.34 -0.27 0.35 -0.27 0.09 -0.00 0.10 -0.00 0.08 -0.12 0.08 -0.13 0.14 -0.07 0.14 -0.07 0.19 -0.11 0.20 -0.11 0.21 -0.20 0.21 -0.20 -0.02 -2.41 -0.03 -2.41 -3.93 -0.00 -3.93 -0.00 0.00 0.90 0.00 0.90 2.37 0.03 2.37 0.02 0.12 0.16 0.11 0.16 0.00 1.01 0.00 1.02 -0.11 0.25 -0.10 0.24 -5.34 -0.00 -5.33 -0.00 -0.09 -0.25 -0.09 -0.24 0.00 -3.39 0.00 -3.40 0.13 -0.10 0.13 -0.11 4.71 0.01 4.72 0.01 0.09 -0.09 0.09 -0.09 0.01 -0.83 0.02 -0.84 -5.22 -0.03 -5.22 -0.02 -0.12 0.14 M 44.95 88.13 l -0.07 0.06 0.00 5.51 0.00 5.52 0.12 0.09 0.11 0.09 1.20 0.02 1.19 0.03 0.20 -0.10 0.20 -0.11 0.00 -2.17 0.00 -2.16 0.06 -0.15 0.06 -0.15 5.38 -0.00 5.38 -0.00 0.06 0.16 0.07 0.16 -0.02 2.13 -0.01 2.13 0.17 0.12 0.17 0.12 1.15 -0.00 1.15 -0.00 0.16 -0.11 0.16 -0.12 -0.02 -5.54 -0.03 -5.54 -1.36 -0.03 -1.36 -0.03 -0.09 0.09 -0.09 0.09 0.00 2.07 0.01 2.07 -0.08 0.12 -0.08 0.11 -5.40 -0.02 -5.39 -0.03 -0.02 -2.13 -0.02 -2.13 -0.01 -0.12 0.00 -0.11 -1.45 -0.00 -1.46 -0.00 -0.06 0.07 M 63.80 88.13 l -0.07 0.06 0.00 0.78 0.00 0.77 0.11 0.11 0.11 0.11 2.80 -0.00 2.80 -0.00 0.16 0.11 0.16 0.12 0.02 4.59 0.03 4.59 1.37 -0.00 1.37 -0.00 0.03 -4.59 0.02 -4.59 0.16 -0.12 0.16 -0.11 2.87 -0.00 2.86 -0.00 0.10 -0.19 0.10 -0.19 -0.03 -0.74 -0.03 -0.73 -7.54 -0.03 -7.54 -0.02 -0.06 0.07 M 82.98 88.18 l -0.08 0.12 -0.16 0.09 -0.15 0.09 -0.70 0.47 -0.69 0.47 -0.22 0.23 -0.22 0.23 0.01 3.78 0.01 3.77 0.24 0.28 0.25 0.28 0.13 -0.00 0.13 -0.00 0.00 0.09 0.00 0.08 0.45 0.29 0.45 0.28 0.47 0.34 0.47 0.33 6.03 0.01 6.03 -0.00 0.24 -0.09 0.25 -0.09 0.00 -0.79 0.00 -0.79 -0.11 -0.11 -0.11 -0.11 -5.84 -0.00 -5.84 -0.00 -0.11 -0.14 -0.11 -0.14 0.01 -3.51 0.01 -3.51 0.06 -0.09 0.05 -0.09 5.85 -0.00 5.85 -0.00 0.16 -0.18 0.16 -0.18 -0.03 -0.74 -0.03 -0.75 -6.41 -0.03 -6.41 -0.02 -0.08 0.11 M 99.66 88.32 l -0.29 0.27 -0.18 0.12 -0.18 0.11 -0.21 0.09 -0.22 0.09 0.00 0.09 0.00 0.09 -0.10 -0.00 -0.09 -0.00 -0.33 0.25 -0.32 0.25 0.00 3.94 0.00 3.95 0.41 0.35 0.40 0.36 0.08 -0.00 0.09 -0.00 0.55 0.43 0.55 0.43 0.09 -0.00 0.09 -0.00 0.06 0.14 0.05 0.14 6.01 -0.00 6.01 -0.00 0.08 -0.11 0.08 -0.12 0.19 -0.12 0.19 -0.11 0.22 -0.09 0.21 -0.09 0.00 -0.09 0.00 -0.09 0.13 -0.00 0.13 -0.00 0.06 -0.14 0.05 -0.14 0.11 -0.00 0.11 -0.00 0.42 -0.34 0.41 -0.34 -0.02 -4.02 -0.03 -4.02 -0.37 -0.21 -0.37 -0.21 -0.24 -0.21 -0.23 -0.21 -0.18 -0.06 -0.18 -0.06 -0.30 -0.28 -0.30 -0.27 -6.16 -0.00 -6.16 -0.00 -0.28 0.26 m 11.78 1.70 l 0.21 0.06 0.00 3.59 0.00 3.58 -0.18 0.10 -0.19 0.09 -5.18 -0.00 -5.18 -0.00 -0.18 -0.16 -0.17 -0.15 0.00 -3.53 0.00 -3.53 0.17 -0.04 0.16 -0.05 5.16 -0.01 5.16 -0.01 0.22 0.06 M 117.20 88.15 l -0.06 0.08 0.00 5.52 -0.01 5.51 0.06 0.07 0.07 0.06 1.32 0.03 1.33 0.04 0.14 -0.11 0.13 -0.11 0.00 -2.31 0.00 -2.31 2.06 -0.00 2.05 -0.00 0.56 0.54 0.55 0.53 0.41 0.34 0.40 0.34 0.45 0.38 0.45 0.37 1.15 1.15 1.16 1.14 0.24 0.16 0.24 0.17 1.35 -0.00 1.34 -0.00 0.00 -0.12 0.00 -0.11 -0.50 -0.43 -0.49 -0.43 -0.99 -0.92 -0.99 -0.91 -0.62 -0.59 -0.62 -0.59 -0.40 -0.33 -0.41 -0.33 0.00 -0.18 0.00 -0.18 1.37 -0.00 1.38 -0.00 0.46 -0.35 0.47 -0.35 0.00 -0.08 0.00 -0.08 0.17 -0.00 0.17 -0.00 0.30 -0.28 0.31 -0.28 0.12 -0.00 0.13 -0.00 0.10 -0.13 0.10 -0.13 -0.02 -1.63 -0.03 -1.64 -0.19 -0.10 -0.19 -0.10 -0.34 -0.27 -0.35 -0.26 -0.07 -0.00 -0.07 -0.00 -0.35 -0.27 -0.34 -0.27 -0.16 -0.06 -0.17 -0.06 0.00 -0.10 0.00 -0.09 -6.57 -0.00 -6.58 -0.00 -0.05 0.09 m 12.48 2.02 l 0.15 0.21 0.00 0.98 0.00 0.98 -0.19 0.19 -0.19 0.19 -4.49 -0.00 -4.49 -0.00 -0.15 -0.06 -0.15 -0.06 0.00 -1.25 0.00 -1.26 0.07 -0.06 0.06 -0.07 4.62 -0.00 4.62 -0.00 0.14 0.21 M 138.67 88.20 l -0.05 0.13 -0.22 0.06 -0.22 0.06 -0.24 0.21 -0.24 0.22 -0.36 0.19 -0.35 0.18 -0.05 0.12 -0.05 0.12 -0.09 -0.00 -0.09 -0.00 -0.18 0.21 -0.17 0.22 -0.01 4.64 0.00 4.65 0.11 0.11 0.11 0.11 1.22 -0.00 1.21 -0.00 0.19 -0.09 0.18 -0.10 0.00 -4.53 0.00 -4.54 0.13 -0.10 0.12 -0.10 5.29 0.02 5.29 0.03 0.00 1.33 0.00 1.33 -3.36 0.05 -3.36 0.05 0.00 0.90 0.00 0.90 4.82 0.03 4.82 0.02 0.12 -0.10 0.13 -0.10 0.00 -2.26 0.00 -2.25 -0.32 -0.31 -0.32 -0.31 -0.37 -0.19 -0.36 -0.19 -0.09 -0.10 -0.09 -0.10 -0.45 -0.29 -0.45 -0.30 -6.11 -0.00 -6.11 -0.00 -0.05 0.13" fill="#000000" fill-rule="evenodd"/>
</svg>